<mxfile host="app.diagrams.net" modified="2021-04-08T10:49:11.504Z" agent="5.0 (Macintosh; Intel Mac OS X 10_15_7) AppleWebKit/537.36 (KHTML, like Gecko) Chrome/89.0.4389.90 Safari/537.36" etag="fQ1udMANoHafe20x3Wuu" version="14.5.7" type="github">
  <diagram name="Page-1" id="c4acf3e9-155e-7222-9cf6-157b1a14988f">
    <mxGraphModel dx="990" dy="1077" grid="1" gridSize="10" guides="1" tooltips="1" connect="1" arrows="1" fold="1" page="1" pageScale="1" pageWidth="1000" pageHeight="700" background="#ffffff" math="0" shadow="0">
      <root>
        <mxCell id="0" />
        <mxCell id="1" parent="0" />
        <mxCell id="XYy4_ADjjCEbh8c2QmV2-208" value="News topic" style="shape=table;startSize=30;container=1;collapsible=1;childLayout=tableLayout;fixedRows=1;rowLines=0;fontStyle=1;align=center;resizeLast=1;" parent="1" vertex="1">
          <mxGeometry x="611" y="250" width="225" height="90" as="geometry" />
        </mxCell>
        <mxCell id="XYy4_ADjjCEbh8c2QmV2-212" value="" style="shape=partialRectangle;collapsible=0;dropTarget=0;pointerEvents=0;fillColor=none;points=[[0,0.5],[1,0.5]];portConstraint=eastwest;top=0;left=0;right=0;bottom=0;" parent="XYy4_ADjjCEbh8c2QmV2-208" vertex="1">
          <mxGeometry y="30" width="225" height="30" as="geometry" />
        </mxCell>
        <mxCell id="XYy4_ADjjCEbh8c2QmV2-214" value="+ news_topic: String" style="shape=partialRectangle;overflow=hidden;connectable=0;fillColor=none;top=0;left=0;bottom=0;right=0;align=left;spacingLeft=6;" parent="XYy4_ADjjCEbh8c2QmV2-212" vertex="1">
          <mxGeometry width="225" height="30" as="geometry" />
        </mxCell>
        <mxCell id="XYy4_ADjjCEbh8c2QmV2-261" style="shape=partialRectangle;collapsible=0;dropTarget=0;pointerEvents=0;fillColor=none;points=[[0,0.5],[1,0.5]];portConstraint=eastwest;top=0;left=0;right=0;bottom=0;" parent="XYy4_ADjjCEbh8c2QmV2-208" vertex="1">
          <mxGeometry y="60" width="225" height="30" as="geometry" />
        </mxCell>
        <mxCell id="XYy4_ADjjCEbh8c2QmV2-262" value="+ quiz_question: Quiz Question[1..*]" style="shape=partialRectangle;overflow=hidden;connectable=0;fillColor=none;top=0;left=0;bottom=0;right=0;align=left;spacingLeft=6;labelBorderColor=none;perimeterSpacing=0;spacingTop=0;strokeColor=none;" parent="XYy4_ADjjCEbh8c2QmV2-261" vertex="1">
          <mxGeometry width="225" height="30" as="geometry" />
        </mxCell>
        <mxCell id="XYy4_ADjjCEbh8c2QmV2-245" value="&lt;h1&gt;&lt;span&gt;UML Diagram: Would They Lie To You?&lt;/span&gt;&lt;/h1&gt;&lt;h1&gt;&lt;br&gt;&lt;/h1&gt;" style="text;html=1;strokeColor=none;fillColor=none;spacing=5;spacingTop=-20;whiteSpace=wrap;overflow=hidden;rounded=0;fontStyle=4" parent="1" vertex="1">
          <mxGeometry x="246.5" y="95" width="490" height="60" as="geometry" />
        </mxCell>
        <mxCell id="XYy4_ADjjCEbh8c2QmV2-256" value="" style="endArrow=none;html=1;exitX=1.013;exitY=1.013;exitDx=0;exitDy=0;exitPerimeter=0;" parent="1" source="30E7htcgH35JNI0_4t0r-1" edge="1">
          <mxGeometry width="50" height="50" relative="1" as="geometry">
            <mxPoint x="660" y="280" as="sourcePoint" />
            <mxPoint x="390" y="280" as="targetPoint" />
            <Array as="points">
              <mxPoint x="390" y="280" />
            </Array>
          </mxGeometry>
        </mxCell>
        <mxCell id="XYy4_ADjjCEbh8c2QmV2-260" value="1..*" style="text;html=1;align=center;verticalAlign=middle;resizable=0;points=[];autosize=1;fontStyle=1" parent="1" vertex="1">
          <mxGeometry x="390" y="260" width="30" height="20" as="geometry" />
        </mxCell>
        <mxCell id="30E7htcgH35JNI0_4t0r-1" value="1" style="text;html=1;align=center;verticalAlign=middle;resizable=0;points=[];autosize=1;fontStyle=1" parent="1" vertex="1">
          <mxGeometry x="590" y="260" width="20" height="20" as="geometry" />
        </mxCell>
        <mxCell id="Z1GNjBSR24uKEfn9F1cf-1" value="Options" style="shape=table;startSize=30;container=1;collapsible=1;childLayout=tableLayout;fixedRows=1;rowLines=0;fontStyle=1;align=center;resizeLast=1;" vertex="1" parent="1">
          <mxGeometry x="610" y="400" width="225" height="120" as="geometry" />
        </mxCell>
        <mxCell id="Z1GNjBSR24uKEfn9F1cf-2" value="" style="shape=partialRectangle;collapsible=0;dropTarget=0;pointerEvents=0;fillColor=none;points=[[0,0.5],[1,0.5]];portConstraint=eastwest;top=0;left=0;right=0;bottom=0;" vertex="1" parent="Z1GNjBSR24uKEfn9F1cf-1">
          <mxGeometry y="30" width="225" height="30" as="geometry" />
        </mxCell>
        <mxCell id="Z1GNjBSR24uKEfn9F1cf-3" value="+ name: String" style="shape=partialRectangle;overflow=hidden;connectable=0;fillColor=none;top=0;left=0;bottom=0;right=0;align=left;spacingLeft=6;" vertex="1" parent="Z1GNjBSR24uKEfn9F1cf-2">
          <mxGeometry width="225" height="30" as="geometry" />
        </mxCell>
        <mxCell id="Z1GNjBSR24uKEfn9F1cf-4" style="shape=partialRectangle;collapsible=0;dropTarget=0;pointerEvents=0;fillColor=none;points=[[0,0.5],[1,0.5]];portConstraint=eastwest;top=0;left=0;right=0;bottom=0;" vertex="1" parent="Z1GNjBSR24uKEfn9F1cf-1">
          <mxGeometry y="60" width="225" height="30" as="geometry" />
        </mxCell>
        <mxCell id="Z1GNjBSR24uKEfn9F1cf-5" value="+ isCorrectAnswer: Boolean" style="shape=partialRectangle;overflow=hidden;connectable=0;fillColor=none;top=0;left=0;bottom=0;right=0;align=left;spacingLeft=6;labelBorderColor=none;perimeterSpacing=0;spacingTop=0;strokeColor=none;" vertex="1" parent="Z1GNjBSR24uKEfn9F1cf-4">
          <mxGeometry width="225" height="30" as="geometry" />
        </mxCell>
        <mxCell id="Z1GNjBSR24uKEfn9F1cf-6" style="shape=partialRectangle;collapsible=0;dropTarget=0;pointerEvents=0;fillColor=none;points=[[0,0.5],[1,0.5]];portConstraint=eastwest;top=0;left=0;right=0;bottom=0;" vertex="1" parent="Z1GNjBSR24uKEfn9F1cf-1">
          <mxGeometry y="90" width="225" height="30" as="geometry" />
        </mxCell>
        <mxCell id="Z1GNjBSR24uKEfn9F1cf-7" value="+ selected: Boolean" style="shape=partialRectangle;overflow=hidden;connectable=0;fillColor=none;top=0;left=0;bottom=0;right=0;align=left;spacingLeft=6;labelBorderColor=none;perimeterSpacing=0;spacingTop=0;strokeColor=none;" vertex="1" parent="Z1GNjBSR24uKEfn9F1cf-6">
          <mxGeometry width="225" height="30" as="geometry" />
        </mxCell>
        <mxCell id="Z1GNjBSR24uKEfn9F1cf-14" value="Quiz Question" style="shape=table;startSize=30;container=1;collapsible=1;childLayout=tableLayout;fixedRows=1;rowLines=0;fontStyle=1;align=center;resizeLast=1;" vertex="1" parent="1">
          <mxGeometry x="165" y="250" width="225" height="270" as="geometry" />
        </mxCell>
        <mxCell id="Z1GNjBSR24uKEfn9F1cf-15" value="" style="shape=partialRectangle;collapsible=0;dropTarget=0;pointerEvents=0;fillColor=none;points=[[0,0.5],[1,0.5]];portConstraint=eastwest;top=0;left=0;right=0;bottom=0;" vertex="1" parent="Z1GNjBSR24uKEfn9F1cf-14">
          <mxGeometry y="30" width="225" height="30" as="geometry" />
        </mxCell>
        <mxCell id="Z1GNjBSR24uKEfn9F1cf-16" value="+ headline: String" style="shape=partialRectangle;overflow=hidden;connectable=0;fillColor=none;top=0;left=0;bottom=0;right=0;align=left;spacingLeft=6;" vertex="1" parent="Z1GNjBSR24uKEfn9F1cf-15">
          <mxGeometry width="225" height="30" as="geometry" />
        </mxCell>
        <mxCell id="Z1GNjBSR24uKEfn9F1cf-17" style="shape=partialRectangle;collapsible=0;dropTarget=0;pointerEvents=0;fillColor=none;points=[[0,0.5],[1,0.5]];portConstraint=eastwest;top=0;left=0;right=0;bottom=0;" vertex="1" parent="Z1GNjBSR24uKEfn9F1cf-14">
          <mxGeometry y="60" width="225" height="30" as="geometry" />
        </mxCell>
        <mxCell id="Z1GNjBSR24uKEfn9F1cf-18" value="+ web_url: String" style="shape=partialRectangle;overflow=hidden;connectable=0;fillColor=none;top=0;left=0;bottom=0;right=0;align=left;spacingLeft=6;labelBorderColor=none;perimeterSpacing=0;spacingTop=0;strokeColor=none;" vertex="1" parent="Z1GNjBSR24uKEfn9F1cf-17">
          <mxGeometry width="225" height="30" as="geometry" />
        </mxCell>
        <mxCell id="Z1GNjBSR24uKEfn9F1cf-19" style="shape=partialRectangle;collapsible=0;dropTarget=0;pointerEvents=0;fillColor=none;points=[[0,0.5],[1,0.5]];portConstraint=eastwest;top=0;left=0;right=0;bottom=0;" vertex="1" parent="Z1GNjBSR24uKEfn9F1cf-14">
          <mxGeometry y="90" width="225" height="30" as="geometry" />
        </mxCell>
        <mxCell id="Z1GNjBSR24uKEfn9F1cf-20" value="+ postData: Date" style="shape=partialRectangle;overflow=hidden;connectable=0;fillColor=none;top=0;left=0;bottom=0;right=0;align=left;spacingLeft=6;labelBorderColor=none;perimeterSpacing=0;spacingTop=0;strokeColor=none;" vertex="1" parent="Z1GNjBSR24uKEfn9F1cf-19">
          <mxGeometry width="225" height="30" as="geometry" />
        </mxCell>
        <mxCell id="Z1GNjBSR24uKEfn9F1cf-21" style="shape=partialRectangle;collapsible=0;dropTarget=0;pointerEvents=0;fillColor=none;points=[[0,0.5],[1,0.5]];portConstraint=eastwest;top=0;left=0;right=0;bottom=0;" vertex="1" parent="Z1GNjBSR24uKEfn9F1cf-14">
          <mxGeometry y="120" width="225" height="30" as="geometry" />
        </mxCell>
        <mxCell id="Z1GNjBSR24uKEfn9F1cf-22" value="+ text_body: String" style="shape=partialRectangle;overflow=hidden;connectable=0;fillColor=none;top=0;left=0;bottom=0;right=0;align=left;spacingLeft=6;labelBorderColor=none;perimeterSpacing=0;spacingTop=0;strokeColor=none;" vertex="1" parent="Z1GNjBSR24uKEfn9F1cf-21">
          <mxGeometry width="225" height="30" as="geometry" />
        </mxCell>
        <mxCell id="Z1GNjBSR24uKEfn9F1cf-23" style="shape=partialRectangle;collapsible=0;dropTarget=0;pointerEvents=0;fillColor=none;points=[[0,0.5],[1,0.5]];portConstraint=eastwest;top=0;left=0;right=0;bottom=0;" vertex="1" parent="Z1GNjBSR24uKEfn9F1cf-14">
          <mxGeometry y="150" width="225" height="30" as="geometry" />
        </mxCell>
        <mxCell id="Z1GNjBSR24uKEfn9F1cf-24" value="+ correct_answer_url: String" style="shape=partialRectangle;overflow=hidden;connectable=0;fillColor=none;top=0;left=0;bottom=0;right=0;align=left;spacingLeft=6;labelBorderColor=none;perimeterSpacing=0;spacingTop=0;strokeColor=none;" vertex="1" parent="Z1GNjBSR24uKEfn9F1cf-23">
          <mxGeometry width="225" height="30" as="geometry" />
        </mxCell>
        <mxCell id="Z1GNjBSR24uKEfn9F1cf-25" style="shape=partialRectangle;collapsible=0;dropTarget=0;pointerEvents=0;fillColor=none;points=[[0,0.5],[1,0.5]];portConstraint=eastwest;top=0;left=0;right=0;bottom=0;" vertex="1" parent="Z1GNjBSR24uKEfn9F1cf-14">
          <mxGeometry y="180" width="225" height="30" as="geometry" />
        </mxCell>
        <mxCell id="Z1GNjBSR24uKEfn9F1cf-26" value="+ num_correct: Int" style="shape=partialRectangle;overflow=hidden;connectable=0;fillColor=none;top=0;left=0;bottom=0;right=0;align=left;spacingLeft=6;labelBorderColor=none;perimeterSpacing=0;spacingTop=0;strokeColor=none;" vertex="1" parent="Z1GNjBSR24uKEfn9F1cf-25">
          <mxGeometry width="225" height="30" as="geometry" />
        </mxCell>
        <mxCell id="Z1GNjBSR24uKEfn9F1cf-27" style="shape=partialRectangle;collapsible=0;dropTarget=0;pointerEvents=0;fillColor=none;points=[[0,0.5],[1,0.5]];portConstraint=eastwest;top=0;left=0;right=0;bottom=0;" vertex="1" parent="Z1GNjBSR24uKEfn9F1cf-14">
          <mxGeometry y="210" width="225" height="30" as="geometry" />
        </mxCell>
        <mxCell id="Z1GNjBSR24uKEfn9F1cf-28" value="+ num_attempted: Int" style="shape=partialRectangle;overflow=hidden;connectable=0;fillColor=none;top=0;left=0;bottom=0;right=0;align=left;spacingLeft=6;labelBorderColor=none;perimeterSpacing=0;spacingTop=0;strokeColor=none;" vertex="1" parent="Z1GNjBSR24uKEfn9F1cf-27">
          <mxGeometry width="225" height="30" as="geometry" />
        </mxCell>
        <mxCell id="Z1GNjBSR24uKEfn9F1cf-29" style="shape=partialRectangle;collapsible=0;dropTarget=0;pointerEvents=0;fillColor=none;points=[[0,0.5],[1,0.5]];portConstraint=eastwest;top=0;left=0;right=0;bottom=0;" vertex="1" parent="Z1GNjBSR24uKEfn9F1cf-14">
          <mxGeometry y="240" width="225" height="30" as="geometry" />
        </mxCell>
        <mxCell id="Z1GNjBSR24uKEfn9F1cf-30" value="+ options: Options[1..*]" style="shape=partialRectangle;overflow=hidden;connectable=0;fillColor=none;top=0;left=0;bottom=0;right=0;align=left;spacingLeft=6;labelBorderColor=none;perimeterSpacing=0;spacingTop=0;strokeColor=none;" vertex="1" parent="Z1GNjBSR24uKEfn9F1cf-29">
          <mxGeometry width="225" height="30" as="geometry" />
        </mxCell>
        <mxCell id="Z1GNjBSR24uKEfn9F1cf-31" value="" style="endArrow=none;html=1;exitX=1.013;exitY=1.013;exitDx=0;exitDy=0;exitPerimeter=0;" edge="1" parent="1">
          <mxGeometry width="50" height="50" relative="1" as="geometry">
            <mxPoint x="611" y="510.26" as="sourcePoint" />
            <mxPoint x="390.74" y="510" as="targetPoint" />
            <Array as="points">
              <mxPoint x="390.74" y="510" />
            </Array>
          </mxGeometry>
        </mxCell>
        <mxCell id="Z1GNjBSR24uKEfn9F1cf-32" value="1" style="text;html=1;align=center;verticalAlign=middle;resizable=0;points=[];autosize=1;fontStyle=1" vertex="1" parent="1">
          <mxGeometry x="395" y="490" width="20" height="20" as="geometry" />
        </mxCell>
        <mxCell id="Z1GNjBSR24uKEfn9F1cf-33" value="1..*" style="text;html=1;align=center;verticalAlign=middle;resizable=0;points=[];autosize=1;fontStyle=1" vertex="1" parent="1">
          <mxGeometry x="580" y="490" width="30" height="20" as="geometry" />
        </mxCell>
      </root>
    </mxGraphModel>
  </diagram>
</mxfile>
